<svg width="64" height="64" viewBox="0 0 64 64" fill="none" xmlns="http://www.w3.org/2000/svg">
  <defs>
    <linearGradient id="vite-flame" x1="3.2" y1="5.152" x2="58.784" y2="57.952" gradientUnits="userSpaceOnUse">
      <stop stop-color="#41D1FF"/>
      <stop offset="1" stop-color="#BD34FE"/>
    </linearGradient>
    <linearGradient id="vite-bolt" x1="36.8" y1="2.272" x2="47.712" y2="42.56" gradientUnits="userSpaceOnUse">
      <stop stop-color="#FFC800"/>
      <stop offset="1" stop-color="#FF6A00"/>
    </linearGradient>
  </defs>
  <path fill="url(#vite-flame)" d="M62.3504 8.97548L33.4055 57.1795C32.1952 59.2002 29.259 59.2106 28.0292 57.1963L1.69278 9.01972C0.431394 6.95063 2.3927 4.21914 4.73155 4.72833L31.998 10.6771L59.1493 4.72052C61.4598 4.21439 63.397 6.9216 62.4235 8.96898C62.3667 9.08609 62.3087 9.20194 62.3504 8.97548Z"/>
  <path fill="url(#vite-bolt)" d="M46.6995 1.3819L25.9636 5.54192C25.3113 5.67228 25.0867 6.46256 25.4605 7.07538L32.92 19.173C33.3559 19.8762 34.5105 19.6272 34.6041 18.8347L35.2802 13.0551C35.3116 12.7868 35.516 12.566 35.7819 12.527L46.6821 10.9644C47.419 10.8531 47.713 9.97922 47.1375 9.54047L42.7038 6.12113C42.4598 5.93527 42.3503 5.62399 42.4373 5.34219L43.0446 3.39632C43.4193 2.18587 42.4087 1.10488 41.1523 1.28359Z"/>
</svg>

